<?xml version="1.0" encoding="utf-8"?>
<!-- Generator: Adobe Illustrator 26.0.3, SVG Export Plug-In . SVG Version: 6.00 Build 0)  -->
<svg version="1.0" id="Layer_1" xmlns="http://www.w3.org/2000/svg" xmlns:xlink="http://www.w3.org/1999/xlink" x="0px" y="0px"
	 viewBox="0 0 995.6 732.4" style="enable-background:new 0 0 995.6 732.4;" xml:space="preserve">
<style type="text/css">
	.st0{fill:#392152;}
	.st1{fill:#FFFFFF;}
	.st2{fill:#D2D2D2;}
	.st3{fill:#E6E6E6;}
</style>
<path class="st0" d="M186.5,249.2H809v234.1H186.5V249.2z"/>
<path class="st1" d="M413.5,393.3c-2.4-2.3-3.6-5.5-3.6-9.9v-27.9c0-4.3,1.2-7.6,3.6-9.9c2.4-2.3,5.9-3.3,10.4-3.3h10.4v5.7H423
	c-1.9,0-3.5,0.5-4.7,1.7c-1.2,1.2-1.7,2.6-1.7,4.2v30.9c0,1.6,0.5,2.9,1.7,4.2c1.2,1.2,2.8,1.7,4.7,1.7h7.1v-16.8h-6.6V368h13v28.6
	h-12.8C419.4,396.6,415.9,395.5,413.5,393.3L413.5,393.3z M469.2,374h-6.9v22.5h-6.8v-54.4h13.9c4.3,0,7.8,1,10.1,2.9
	c2.3,1.9,3.3,5,3.3,9.2v7.5c0,5.9-2.3,9.5-6.9,10.9l10.8,23.9h-7.5L469.2,374z M474.5,349.4c-0.9-0.9-2.4-1.4-4.3-1.4h-8v20.3h8.1
	c1.9,0,3.5-0.5,4.3-1.4s1.4-2.4,1.4-4.3v-9C475.9,351.7,475.6,350.3,474.5,349.4L474.5,349.4z M525.9,396.6l-2.9-13.7h-15.1
	l-2.9,13.7H498l13.2-54.4h8.8l12.8,54.4H525.9L525.9,396.6z M515.3,347.3L509,377h12.7L515.3,347.3L515.3,347.3z M572,372.5
	c-2.3,2.1-5.5,2.9-9.9,2.9h-7.3v21.2h-6.8v-54.4h13.9c4.3,0,7.8,1,10.1,2.9s3.3,5,3.3,9.2v8.8C575.3,367.4,574.2,370.4,572,372.5
	L572,372.5z M567.1,349.4c-0.9-0.9-2.4-1.4-4.3-1.4h-8.1v21.7h8.1c1.9,0,3.5-0.5,4.3-1.4c0.9-0.9,1.4-2.4,1.4-4.3v-10.4
	C568.5,351.7,568,350.3,567.1,349.4L567.1,349.4z M615.5,396.6v-25h-16v25h-6.8v-54.4h6.8v23.6h16v-23.6h6.8v54.4H615.5z
	 M666.8,397.8c-0.3,0.2-8.8,0.2-9.4,0.2c-2.9,0-5.5,0-7.6-0.7c-2.3-0.9-4-2.3-5.4-4.5c-1.4-2.3-2.4-5.2-3.1-9
	c-0.7-3.8-0.7-26.2,0.2-29.8c0.7-3.6,1.9-6.6,3.5-8.5s3.5-3.1,5.7-3.6c2.3-0.7,9-0.5,9.9-0.5h6.4v9.4h-9.4c-1.2,0-2.3,0.3-2.9,0.7
	c-0.7,0.3-1.4,0.9-1.9,2.3c-0.5,1.2-0.9,2.9-1.2,5.5c-0.2,2.4-0.3,17.7,0,20.1c0.2,2.6,0.5,4.3,1,5.7c0.5,1.4,1.2,2.3,1.9,2.8
	c0.9,0.5,1.9,0.7,2.9,0.7h9.4L666.8,397.8L666.8,397.8z M713.1,397.8v-45.4l-6.8,24.8h-8.1l-6.9-24.8v45.4h-9.5v-56.7h16.1l4.5,21.8
	l4.7-21.8h15.4v56.7H713.1z M766.4,381c0,3.8-0.5,6.8-1.4,9.2c-0.9,2.3-2.1,4-3.6,5.4c-1.6,1.2-3.5,1.9-5.7,2.3
	c-2.3,0.3-4.5,0.2-7.1,0.2c-0.9,0-10.1,0-11.1-0.2v-9h10.2c2.4,0,4.3-0.5,5.7-1.6c1.4-1,2.1-2.9,2.1-5.5c0-1.4-0.2-2.8-0.3-3.8
	c-0.3-1-0.7-1.9-1.2-2.4c-0.5-0.7-1.2-1.2-2.1-1.6c-0.9-0.3-1.7-0.7-2.8-0.9c-4.3-0.9-7.5-2.6-9.4-5.2s-2.8-6.2-2.8-11.1
	c0-2.9,0.3-5.5,1.2-7.6c0.9-2.1,1.9-3.8,3.6-5c1.6-1.2,3.5-1.9,5.9-2.4c2.3-0.5,4.9-0.5,7.8-0.5h9.7v9h-10.4c-2.3,0-4,0.5-5.2,1.4
	s-1.7,2.4-1.7,4.5c0,1.4,0.2,2.4,0.3,3.1c0.2,0.9,0.5,1.6,1,2.1c0.5,0.5,1,0.9,1.9,1.2c0.7,0.3,1.7,0.7,2.9,0.9c1.9,0.3,3.5,1,5,1.7
	c1.6,0.9,2.8,1.9,4,3.1c1,1.4,1.9,3.1,2.6,5C766,375.2,766.4,377.8,766.4,381z M300.6,299.1c-3.3-1.9-7.3-1.9-10.4,0l-49.9,29
	c-3.3,1.9-5.2,5.2-5.2,9v58.1c0,3.6,1.9,7.1,5.2,9l49.9,29c3.3,1.9,7.3,1.9,10.4,0l49.9-29c3.1-1.9,5.2-5.4,5.2-9v-58.1
	c0-3.6-1.9-7.1-5.2-9L300.6,299.1z M287.6,294.6c4.9-2.8,10.8-2.8,15.6,0l50.1,29.1c4.9,2.8,7.8,8,7.8,13.5v58.1
	c0,5.5-2.9,10.8-7.8,13.5l-49.9,29c-4.9,2.8-10.8,2.8-15.6,0l-50.1-29c-4.9-2.8-7.8-8-7.8-13.5v-58.3c0-5.5,2.9-10.8,7.8-13.5
	C237.7,323.7,287.6,294.6,287.6,294.6L287.6,294.6z"/>
<path class="st2" d="M243.4,399l1.4,0.7l18.9,10.9c0.3,0.2,0.7,0,0.9-0.3c0-0.2,0.2-0.3,0.2-0.5v-10.2c0-0.3-0.2-0.5-0.5-0.7
	l-12.8-7.5c-0.3-0.2-0.5-0.5-0.5-0.7v-33.1c0-0.5,0.3-0.9,0.9-0.9c0.2,0,0.3,0,0.5,0.2l11.1,6.4c0.3,0.2,0.9,0.2,1.2-0.3
	c0-0.2,0.2-0.3,0.2-0.5v-13.9c0-0.2,0-0.3,0.2-0.5l-23.4-13.5c-0.3,0.7-0.7,1.4-0.7,2.1v58.6C241.2,396.9,242,398.3,243.4,399
	L243.4,399z M271.8,352c-0.2,0.2-0.2,0.3-0.2,0.5v62.2c0,0.2,0,0.3,0.2,0.5l8.8,5c0.2,0,0.2,0.2,0.3,0.2c0.5,0,0.9-0.3,0.9-0.9
	v-32.3c0-0.2,0-0.3,0.2-0.5c0.2-0.3,0.7-0.5,1.2-0.3l12,6.9c0.2,0.2,0.3,0.2,0.5,0.2v-27.7L271.8,352L271.8,352z"/>
<path class="st3" d="M325.9,348.2l23.4-13.5c0.3,0.7,0.7,1.6,0.7,2.4v12.3c0,0.3-0.2,0.5-0.3,0.7l-12.8,7.5
	c-0.3,0.2-0.3,0.5-0.3,0.7v9.7c0,0.5,0.3,0.9,0.9,0.9c0.2,0,0.3,0,0.5-0.2l11.1-6.4c0.3-0.2,0.9-0.2,1.2,0.3c0,0.2,0.2,0.3,0.2,0.5
	v31.2c0,1.9-1,3.6-2.6,4.5l-19.9,11.6c-0.3,0.2-0.9,0.2-1.2-0.3c0-0.2-0.2-0.3-0.2-0.5V400c0-0.3,0.2-0.5,0.5-0.7l12.8-7.5
	c0.3-0.2,0.5-0.5,0.5-0.7v-9.9c0-0.5-0.3-0.9-0.9-0.9c-0.2,0-0.3,0-0.5,0.2l-11.1,6.4c-0.3,0.2-0.9,0.2-1.2-0.3
	c0-0.2-0.2-0.3-0.2-0.5v-37.3C326.1,348.5,326.1,348.4,325.9,348.2L325.9,348.2z M319,352.2c0.2,0.2,0.3,0.3,0.3,0.7v62.2
	c0,0.3-0.2,0.5-0.5,0.7l-8.3,4.9c-0.3,0.2-0.9,0.2-1.2-0.3c0-0.2-0.2-0.3-0.2-0.5v-32.4c0-0.5-0.3-0.9-0.9-0.9c-0.2,0-0.3,0-0.5,0.2
	l-12,6.9c-0.2,0-0.2,0.2-0.3,0.2v-27.9L319,352.2L319,352.2z"/>
<path class="st1" d="M265.1,348.2l-23.4-13.5c0.5-0.7,1-1.4,1.9-1.7l49.4-28.8c1.6-0.9,3.6-0.9,5.2,0l20.1,11.6
	c0.2,0,0.2,0.2,0.3,0.3c0.2,0.3,0.2,0.9-0.3,1.2L265.3,348C265.1,348,265.1,348,265.1,348.2L265.1,348.2z M319,352.2l-23.6,13.7
	L271.7,352l0.2-0.2l23.1-13.4c0.3-0.2,0.5-0.2,0.9,0l23.1,13.4C319,352,319,352.2,319,352.2z M349.4,334.7l-23.4,13.5l-0.2-0.2
	l-22.4-13c-0.3-0.2-0.5-0.7-0.3-1.2c0-0.2,0.2-0.2,0.3-0.3l22.4-13c0.3-0.2,0.5-0.2,0.9,0l20.8,12.1
	C348.3,333.1,348.8,333.8,349.4,334.7z"/>
</svg>
